<svg xmlns="http://www.w3.org/2000/svg" preserveAspectRatio="xMidYMid" width="450" height="254" viewBox="0 0 450 254"><defs><style>.cls-3{fill:#e74c3c}.cls-4{fill:#fff}</style></defs><g id="img"><path id="rect-1" class="cls-3" d="M0 0h450v254H0z"/><path d="M242.33 141.948h-33.663c-1.487 0-2.693-1.19-2.693-2.658v-21.267c0-1.467 1.206-2.658 2.693-2.658h8.164s-.083-.16-.083-1.994 1.507-3.322 3.367-3.322h10.772c1.86 0 3.366 1.488 3.366 3.323 0 1.836.085 1.995.085 1.995h7.994c1.488 0 2.694 1.19 2.694 2.658v21.267c0 1.468-1.206 2.658-2.693 2.658zm-16.77-5.352c4.462 0 8.08-3.57 8.08-7.975 0-4.404-3.618-7.974-8.08-7.974s-8.08 3.57-8.08 7.975c0 4.406 3.618 7.976 8.08 7.976z" id="path-1" class="cls-4" fill-rule="evenodd"/></g></svg>